<?xml version="1.0" encoding="UTF-8" standalone="no"?>
<!-- Created with Inkscape (http://www.inkscape.org/) -->

<svg
   width="16mm"
   height="16mm"
   viewBox="0 0 16 16"
   version="1.1"
   id="svg5"
   inkscape:version="1.1.1 (3bf5ae0d25, 2021-09-20)"
   sodipodi:docname="typewriterlabel.svg"
   xmlns:inkscape="http://www.inkscape.org/namespaces/inkscape"
   xmlns:sodipodi="http://sodipodi.sourceforge.net/DTD/sodipodi-0.dtd"
   xmlns="http://www.w3.org/2000/svg"
   xmlns:svg="http://www.w3.org/2000/svg">
  <sodipodi:namedview
     id="namedview7"
     pagecolor="#505050"
     bordercolor="#eeeeee"
     borderopacity="1"
     inkscape:pageshadow="0"
     inkscape:pageopacity="0"
     inkscape:pagecheckerboard="0"
     inkscape:document-units="mm"
     showgrid="false"
     units="mm"
     width="16mm"
     inkscape:zoom="8"
     inkscape:cx="11.0625"
     inkscape:cy="44.6875"
     inkscape:window-width="2560"
     inkscape:window-height="1369"
     inkscape:window-x="-8"
     inkscape:window-y="-8"
     inkscape:window-maximized="1"
     inkscape:current-layer="layer1" />
  <defs
     id="defs2" />
  <g
     inkscape:label="Layer 1"
     inkscape:groupmode="layer"
     id="layer1">
    <rect
       style="fill:none;stroke-width:0.635;stroke-linejoin:bevel"
       id="rect858"
       width="11.807031"
       height="7.0114584"
       x="1.7528646"
       y="5.7546873" />
    <ellipse
       style="fill:none;stroke-width:0.635;stroke-linejoin:bevel"
       id="path1005"
       cx="5.8704429"
       cy="5.7050781"
       rx="3.3569009"
       ry="2.4970052" />
    <ellipse
       style="fill:none;stroke-width:0.635;stroke-linejoin:bevel"
       id="path1007"
       cx="9.5415363"
       cy="9.921875"
       rx="0.28111979"
       ry="1.6867187" />
    <ellipse
       style="fill:none;stroke-width:0.635;stroke-linejoin:bevel"
       id="path1009"
       cx="10.219531"
       cy="9.1777344"
       rx="6.5484376"
       ry="6.7634115" />
  </g>
  <g
     inkscape:groupmode="layer"
     id="layer2"
     inkscape:label="Layer 2">
    <path
       id="rect3232"
       style="fill:#8eef97;fill-opacity:1;stroke:#8eef97;stroke-width:4.42345;stroke-linejoin:round;stroke-miterlimit:4;stroke-dasharray:none;stroke-opacity:1"
       d="M 11.609375 29.216797 L 11.609375 40.181641 L 6.8066406 40.181641 L 6.8066406 53.025391 L 53.666016 53.025391 L 53.666016 40.181641 L 48.478516 40.181641 L 48.478516 29.216797 L 11.609375 29.216797 z M 20.261719 34.767578 A 4.750625 4.7506097 0 0 1 25.013672 39.519531 A 4.750625 4.7506097 0 0 1 20.261719 44.269531 A 4.750625 4.7506097 0 0 1 15.511719 39.519531 A 4.750625 4.7506097 0 0 1 20.261719 34.767578 z M 30.427734 34.767578 A 4.7506249 4.7506096 0 0 1 35.177734 39.519531 A 4.7506249 4.7506096 0 0 1 30.427734 44.269531 A 4.7506249 4.7506096 0 0 1 25.675781 39.519531 A 4.7506249 4.7506096 0 0 1 30.427734 34.767578 z M 40.591797 34.767578 A 4.7506248 4.7506095 0 0 1 45.341797 39.519531 A 4.7506248 4.7506095 0 0 1 40.591797 44.269531 A 4.7506248 4.7506095 0 0 1 35.841797 39.519531 A 4.7506248 4.7506095 0 0 1 40.591797 34.767578 z M 15.373047 43.4375 A 4.7506244 4.7506091 0 0 1 20.125 48.1875 A 4.7506244 4.7506091 0 0 1 15.373047 52.939453 A 4.7506244 4.7506091 0 0 1 10.623047 48.1875 A 4.7506244 4.7506091 0 0 1 15.373047 43.4375 z M 25.435547 43.4375 A 4.7506245 4.7506092 0 0 1 30.1875 48.1875 A 4.7506245 4.7506092 0 0 1 25.435547 52.939453 A 4.7506245 4.7506092 0 0 1 20.685547 48.1875 A 4.7506245 4.7506092 0 0 1 25.435547 43.4375 z M 35.560547 43.4375 A 4.7506246 4.7506093 0 0 1 40.3125 48.1875 A 4.7506246 4.7506093 0 0 1 35.560547 52.939453 A 4.7506246 4.7506093 0 0 1 30.810547 48.1875 A 4.7506246 4.7506093 0 0 1 35.560547 43.4375 z M 45.560547 43.4375 A 4.7506247 4.7506094 0 0 1 50.3125 48.1875 A 4.7506247 4.7506094 0 0 1 45.560547 52.939453 A 4.7506247 4.7506094 0 0 1 40.810547 48.1875 A 4.7506247 4.7506094 0 0 1 45.560547 43.4375 z "
       transform="scale(0.26458333)" />
    <rect
       style="fill:none;fill-opacity:1;stroke:#8eef97;stroke-width:0.881148;stroke-linejoin:miter;stroke-miterlimit:4;stroke-dasharray:none;stroke-opacity:1"
       id="rect3670"
       width="7.7954707"
       height="5.3842702"
       x="4.0652256"
       y="2.4790683" />
    <ellipse
       style="fill:#8eef97;fill-opacity:1;stroke:#8eef97;stroke-width:0.258351;stroke-linejoin:miter;stroke-miterlimit:4;stroke-dasharray:none;stroke-opacity:1"
       id="path3818"
       cx="5.6608505"
       cy="4.1292281"
       rx="0.52362508"
       ry="0.50348562" />
    <ellipse
       style="fill:#8eef97;fill-opacity:1;stroke:#8eef97;stroke-width:0.258351;stroke-linejoin:miter;stroke-miterlimit:4;stroke-dasharray:none;stroke-opacity:1"
       id="path3818-7"
       cx="10.255385"
       cy="6.0122299"
       rx="0.52362508"
       ry="0.50348562" />
    <rect
       style="fill:none;fill-opacity:1;stroke:#8eef97;stroke-width:0.903027;stroke-linejoin:round;stroke-miterlimit:4;stroke-dasharray:none;stroke-opacity:1"
       id="rect4077-5"
       width="3.3881886"
       height="0.16061056"
       x="5.4490685"
       y="5.9207973" />
    <rect
       style="fill:none;fill-opacity:1;stroke:#8eef97;stroke-width:0.903027;stroke-linejoin:round;stroke-miterlimit:4;stroke-dasharray:none;stroke-opacity:1"
       id="rect7919"
       width="3.3881886"
       height="0.16061056"
       x="7.0744014"
       y="4.057591" />
  </g>
</svg>
